<?xml version="1.0" encoding="UTF-8"?>
<svg id="Layer_1" data-name="Layer 1" xmlns="http://www.w3.org/2000/svg" version="1.1" viewBox="0 0 165.93146 232.75597">
  <defs>
    <style>
      .cls-1 {
        fill: #39631d;
      }

      .cls-1, .cls-2, .cls-3 {
        stroke-width: 0px;
      }

      .cls-2 {
        fill: #48871f;
      }

      .cls-3 {
        fill: #57962d;
      }
    </style>
  </defs>
  <path id="path-03" class="cls-2" d="M44.40337,9.74818v-2.97005c0-3.74345-3.03467-6.77812-6.77812-6.77812H14.78386c-3.74345,0-6.77812,3.03467-6.77812,6.77812v24.65909L44.40337,9.74818Z"/>
  <path id="path-02" class="cls-1" d="M.00002,38.24624v-10.49739C.00002,24.26785,2.24196,21.18293,5.55286,20.1081L44.40337,7.49592l92.54856,22.14741v11.33839l-68.47595-9.16079L.00002,38.24624Z"/>
  <path id="path-01" class="cls-3" d="M130.77527,163.42918l-1.29877,16.31891c8.50671,3.69989,14.46625,12.15515,14.46625,22.02374,0,2.42645-.36304,4.7674-1.0318,6.97552.0321-.49207.05426-.98676.05426-1.48694,0-12.43622-10.08154-22.51776-22.51782-22.51776-1.46747,0-2.90045.14502-4.28961.41309l1.05835-12.65479c4.54584-3.00061,9.21436-5.83588,13.55914-9.07178ZM162.28015,30.08788l-.06757.10828-11.54797,13.28015c-2.82129,3.24451-7.29468,4.51276-11.39899,3.23181l-3.09039-.96454c-7.99908-2.31903-26.57227-5.6922-60.59515-5.6922s-52.59607,3.37317-60.59515,5.6922l-6.23218.59894c-4.43707.42645-8.35065-3.1936-8.75275-8.09631,0-16.25848,114.44263-18.36627,144.16125-6.32916-3.45465-2.49579-5.71136-6.54718-5.71136-11.1347,0-7.58881,6.15198-13.74078,13.74078-13.74078s13.74078,6.15198,13.74078,13.74078c0,3.59479-1.3916,6.85675-3.65131,9.30554ZM145.50647,20.78233c0,3.69159,2.99261,6.6842,6.6842,6.6842s6.6842-2.99261,6.6842-6.6842-2.99261-6.6842-6.6842-6.6842-6.6842,2.99261-6.6842,6.6842ZM94.5451,226.58879h-24.86505c-1.03998-11.01996-7.53998-21.47998-16.87-27.59998-5.01996-3.31-10.78998-5.46997-15.45996-9.26001-6.01001-4.84998-9.63-12.34998-10.17999-20.02997-1.87006,9.89996,1.91998,20.81,9.77997,27.16998,4.67999,3.78003,10.44,5.95001,15.47003,9.26001,6.42999,4.21997,12.5,10.44,15.06,20.45996h-19.84106c-11.32153,0-20.7757-8.63165-21.80334-19.90643L12.18005,56.85881c0-14.19,126.80005-14.19,126.80005,0l-4.94,54.21002c6.25995-3.98004,11.37-9.75,12.45996-16.95001,1.82758,4.08783,3.03937,8.41266,3.67151,12.82532,2.3045,16.0863-3.13904,33.34802-14.94147,44.62469-7.92004,7.57001-18.04004,12.37-26.67004,19.13-.45996.35999-.90997.71997-1.34998,1.08997-7.7066,6.36298-13.98218,14.47632-18.33533,23.47845-1.94086,4.01367-3.49969,8.20306-4.62939,12.49524,3.13116-7.54602,9.86481-13.21851,18.05731-14.86877-6.90118,4.31531-11.49481,11.97784-11.49481,20.7171,0,4.77014,1.37268,9.21741,3.73724,12.97797ZM64.32007,200.12883c.38.47998.75.95996,1.12,1.44,2.81659,3.73682,5.20081,7.75317,6.92157,11.98682.17145.03601.34113.07697.51324.11115.60077-4.27594,1.52637-8.54419,2.74207-12.72583,2.78851-9.59161,7.06519-18.72528,12.25311-26.43213,4-5.96002,8.71002-11.44,13.98004-16.29999,4.78998-4.41003,12-9.58002,19.32996-13.67004-21.90997,8.67004-39.13,24.56-45.22998,45.13-.49188-1.00311-.94501-2.02612-1.37366-3.06012-5.76782-13.9126-5.7688-30.39948,1.46368-43.5799,5.21997-9.48999,14.44995-16.33997,24.54999-20.25,6.77759-2.62433,13.96997-4.03314,20.89423-6.19189l3.97418-43.62073c.55847-6.1297-3.78717-11.61694-9.88293-12.46991-8.72131-1.22028-21.69458-2.27649-39.99548-2.27649s-31.27374,1.05621-39.99506,2.27649c-6.0957.85297-10.44135,6.34021-9.88287,12.46991l8.50671,93.37286c1.66974,1.13611,3.54834,2.0202,5.44122,2.63977,4.98999,1.64001,10.32001,1.94,15.34998,3.42004,5.71002,1.67999,11.07001,5.00995,14.36005,9.96997,4.89996,7.39001,5.39996,17.26001,2.16998,25.52002-1.10004-2.83002-2.59003-5.45001-4.41003-7.86005-5.23999-6.91998-13.19995-12.00995-22.39996-14.78998,4.20001,1.91003,8.38,4.41998,11.20001,6.60999,3.10999,2.42004,5.92999,5.21002,8.39996,8.28003ZM139.59479,219.10905c-.39227.93707-.84943,1.83966-1.36121,2.70642-3.8656,6.54645-10.98883,10.94049-19.14191,10.94049-12.27124,0-22.21906-9.94781-22.21906-22.21912s9.94781-22.21906,22.21906-22.21906,22.21906,9.94781,22.21906,22.21906c0,3.03876-.61169,5.9342-1.71594,8.5722ZM119.09167,222.38408c6.54303,0,11.84717-5.3042,11.84717-11.84723s-5.30414-11.84717-11.84717-11.84717-11.84717,5.3042-11.84717,11.84717,5.30414,11.84723,11.84717,11.84723Z"/>
</svg>