<?xml version="1.0" encoding="UTF-8"?>
<svg id="tree3" data-name="tree" xmlns="http://www.w3.org/2000/svg" version="1.1" viewBox="0 0 250 235.24084">
  <!-- Generator: Adobe Illustrator 29.1.0, SVG Export Plug-In . SVG Version: 2.1.0 Build 142)  -->
  <defs>
    <style>
      .st0 {
        fill: #5c8c14;
      }

      .st1 {
        fill: #bf702b;
      }

      .st2 {
        fill: #355926;
      }

      .st3 {
        fill: #401801;
      }
    </style>
  </defs>
  <path id="path-04" class="st1" d="M71.54639,90.51178c0-5.72784,4.64337-10.37122,10.37128-10.37122s10.37122,4.64337,10.37122,10.37122-4.64331,10.37128-10.37122,10.37128-10.37128-4.64337-10.37128-10.37128ZM115.16205,117.17242c-13.51099-27.33325,1.80933-64.08417,1.80933-64.08417-14.41553,19.45813-19.85852,40.96283-14.26727,64.20276-28.99432-15.67615-42.78699-.41522-66.05658-20.76318,0,0,3.72247,17.57465,37.80383,22.83954,17.61908,2.72894,31.35242,11.43463,41.79333,22.49841,2.32843-4.22675,4.79034-8.17175,7.2226-11.86469-1.66101-2.49158-3.30725-4.89417-4.909-7.20776-1.24585-1.79462-2.43225-3.64844-3.39624-5.62091ZM132.92938,145.75146c-2.44714,2.77344-4.68658,5.66541-6.73315,8.64642,10.17395,15.18677,15.64655,31.99011,17.63379,43.48407,1.82428-21.14886-3.55933-38.02637-10.90063-52.13049Z"/>
  <path id="path-03" class="st3" d="M157.31689,90.51178c0-5.72784,4.64337-10.37122,10.37122-10.37122s10.37128,4.64337,10.37128,10.37122-4.64337,10.37128-10.37128,10.37128-10.37122-4.64337-10.37122-10.37128ZM146.90308,117.2937c5.58459-23.2395.14349-44.742-14.27167-64.20251,0,0,15.32465,36.74713,1.81415,64.08325-.97137,1.96545-2.14484,3.82129-3.39142,5.62482-12.48895,18.06836-28.22046,41.0708-25.27612,75.08295,4.15405-24.09344,23.67804-71.44958,69.37256-78.51147,34.08398-5.26752,37.80182-22.84723,37.80182-22.84723-23.26263,20.3548-37.05951,5.09479-66.04932,20.7702ZM150.31201,215.21918c-8.79474-13.08081-12.82874-25.07892-16.72925-35.41608-2.5509-6.77771-5.04248-12.84344-8.77985-18.04907-3.75226,5.20563-6.229,11.25653-8.79474,18.03424-3.88562,10.33716-7.90485,22.33527-16.71436,35.43091-8.49805,12.6507-22.92847,19.59155-23.81836,20.02167,1.18646-.40045,24.01117-8.00867,46.40582-5.10181,0,0-2.19507-15.52795,2.92163-32.36096,5.10181,16.83301,2.90686,32.36096,2.90686,32.36096,22.40942-2.90686,45.23413,4.70135,46.42053,5.10181-.88989-.43011-15.32025-7.37097-23.8183-20.02167Z"/>
  <path id="path-02" class="st2" d="M185.71918,62.42419c-4.32837,4.41205-9.22662,7.40735-13.79199,9.00104-9.22058,3.16901-17.00897,1.12811-21.7619-5.56866.60065-8.26837,6.2467-13.73462,14.05951-16.43231,3.93213-1.37665,8.39038-2.10968,13.47119-2.53308,5.10828-.41937,10.78583-.63007,17.56439-1.39203-1.57678,6.57977-5.21381,12.57172-9.5412,16.92505ZM190.2597,131.41888c-3.34863.38605-6.70404,1.70178-9.94482,4.25293-.99255,3.96289-.45502,7.77277,1.54907,11.08185,1.98352,3.31818,5.43469,6.10449,9.91052,7.90131,4.46973,1.79083,9.96582,2.5506,15.76727,1.91785,5.79401-.60822,11.89709-2.7074,17.40875-6.23901-10.08752-8.4292-17.53333-14.55414-24.50867-17.31787-3.47333-1.39764-6.83221-1.96277-10.18213-1.59705ZM228.83691,98.94043c-4.88806,3.06549-7.85504,7.11554-7.80786,12.72559,1.8963,2.02393,4.36133,3.12396,7.16156,3.20984,2.79803.10034,5.91626-.82562,8.9353-2.71527,3.01337-1.88947,5.90668-4.75989,8.20642-8.37738,2.30957-3.60419,3.97473-7.99811,4.66766-12.7019-9.18988,2.56342-16.23706,4.75659-21.16309,7.85913ZM189.84229,28.8175c4.03998-5.37427,6.55603-13.87903,5.85205-23.35211-8.39966,4.41187-14.67523,9.10126-18.34613,14.00452-3.65271,4.8819-4.74487,10.06982-2.17865,15.03229,5.19086,1.96979,10.62439-.27509,14.67273-5.68469ZM221.95758,56.02954c4.78186-1.59406,9.99823-5.44153,16.91992-10.83038-3.58533-2.49792-7.57251-4.07306-11.39398-4.66943-3.82538-.61163-7.48462-.30579-10.50647.71216-3.02576,1.02161-5.4137,2.72955-6.86096,4.85236-1.45966,2.11639-1.97815,4.62866-1.49231,7.31952,4.12988,3.67444,8.60846,4.20642,13.3338,2.61578ZM125.65503,39.45593c10.40253-4.2124,10.40253-20.8916,0-37.67365-10.40259,16.78217-10.40259,33.4613,0,37.67365ZM85.77521,49.42426c-3.93213-1.37665-8.39038-2.10968-13.47119-2.53308-5.10822-.41937-10.78583-.63007-17.56439-1.39203,1.57678,6.57977,5.21387,12.57172,9.54126,16.92511,4.32837,4.41199,9.22662,7.40729,13.79199,9.00104,9.22058,3.16895,17.00891,1.12811,21.76184-5.56873-.60065-8.26837-6.2467-13.73462-14.05951-16.43231ZM59.7403,131.41888c-3.34991-.36572-6.7088.1994-10.18213,1.59705-6.9754,2.76373-14.4212,8.88867-24.50867,17.31787,5.51166,3.53162,11.61475,5.63074,17.40875,6.23901,5.80151.63269,11.29761-.12701,15.76733-1.91785,4.47583-1.79681,7.927-4.58313,9.91052-7.90131,2.00409-3.30914,2.54163-7.11896,1.54901-11.08185-3.24078-2.55115-6.59619-3.86688-9.94482-4.25293ZM21.16302,98.94037c-4.92596-3.10248-11.97314-5.29572-21.16302-7.85907.69293,4.7038,2.35809,9.09778,4.66772,12.70197,2.2998,3.61749,5.19305,6.48785,8.20648,8.37732,3.01898,1.88965,6.13727,2.81567,8.93524,2.71527,2.80023-.08588,5.2652-1.18585,7.1615-3.20984.04712-5.61005-2.91986-9.66016-7.80792-12.72565ZM74.83044,34.5022c2.56622-4.96252,1.474-10.15039-2.17865-15.03235-3.6709-4.9032-9.94647-9.59259-18.34613-14.00446-.70398,9.47314,1.81219,17.97791,5.85217,23.35217,4.04828,5.40961,9.48175,7.65442,14.67261,5.68463ZM41.37622,53.41376c.48578-2.69086-.03265-5.20312-1.49237-7.31952-1.44727-2.12286-3.83521-3.83075-6.86096-4.85236-3.02185-1.01794-6.68109-1.32379-10.50641-.71216-3.82153.59637-7.80865,2.17151-11.39398,4.66943,6.92175,5.38885,12.13812,9.23633,16.91998,10.83038,4.72534,1.5907,9.20392,1.05865,13.33374-2.61578ZM116.9306,84.4082c-2.06079,8.78229-2.14618,16.31671-.35602,21.84717,1.78754,5.5152,5.48334,9.07178,10.99768,9.47449,4.51636-3.16003,5.73901-8.44409,3.84583-14.28595-1.88275-5.82764-6.89862-12.1488-14.48749-17.03571Z"/>
  <path id="path-01" class="st0" d="M155.24115,41.51306c-2.64862,2.422-5.96594,4.10822-10.06982,4.74774-3.51892-2.14075-5.85449-5.3028-6.83881-9.19135-1.00232-3.88153-.63416-8.47308,1.12195-13.19153,1.75739-4.711,4.93005-9.52655,9.33167-13.74323,4.38208-4.22546,10.06122-7.79907,16.50146-10.1347-.29865,13.7395-1.08551,24.2713-3.99261,32.02429-1.43958,3.87421-3.41766,7.05389-6.05383,9.48877ZM166.83826,139.94855c-3.95978-2.32928-8.08325-3.28717-11.78094-2.79578-3.70282.47174-6.95801,2.37537-9.47144,5.57422-.146,4.10071.73468,7.53961,2.34357,10.38947,1.62469,2.84009,3.98718,5.10199,7.0752,6.91534,6.17133,3.66461,15.26837,5.52814,27.82947,7.75275-.53687-6.33124-2.49744-12.22461-5.39746-16.99518-2.88702-4.78931-6.64642-8.51263-10.59839-10.84082ZM196.6347,69.80981c-4.23657,3.18396-7.41211,6.92694-9.33636,10.82428-3.89948,7.7522-2.54388,16.39038,4.54071,20.52222,8.13263-.66772,13.16937-3.74078,16.36047-10.20172,1.58881-3.216,2.68774-7.23383,3.32849-11.98859.64874-4.77075.79596-10.21265.76062-16.46075-6.09021,1.45813-11.43481,4.13232-15.65393,7.30457ZM240.08038,83.16736c3.81085-5.55518,6.58087-13.69159,7.99847-23.6026-9.4588,3.30298-16.83905,8.89667-20.86151,14.76971-4.04102,5.8855-4.72827,11.96368-1.41016,16.49371,5.57074.87433,10.4704-2.12262,14.27319-7.66083ZM228.62805,121.93573c-7.11786-1.83215-13.18372.02728-15.84973,4.93317,1.51508,5.43494,5.87329,8.60992,11.95721,10.17737,6.12366,1.5802,14.1264,1.59448,23.98663.7771-5.12842-8.48633-13.0235-14.09955-20.09412-15.88763ZM203.29395,40.35437c5.3432.7995,9.50665-2.11115,11.11542-7.37439,1.61859-5.20331.47662-12.63153-4.25555-19.16681-5.67279,5.711-9.36401,10.31787-10.66779,14.60907-1.297,4.24774-.27563,8.32788,3.80792,11.93213ZM101.21387,10.1347c-4.38214-4.22552-10.06122-7.79907-16.5014-10.1347.29865,13.7395,1.08551,24.2713,3.99255,32.02435,1.43964,3.87421,3.41766,7.05383,6.05383,9.48871,2.64868,2.422,5.96594,4.10822,10.06982,4.74774,3.51892-2.14075,5.85455-5.30286,6.83881-9.19135,1.00226-3.88153.63416-8.47314-1.12195-13.19159-1.75739-4.711-4.93011-9.52655-9.33167-13.74316ZM94.94269,137.15277c-3.69769-.49133-7.82117.46649-11.78101,2.79578-3.95197,2.32819-7.7113,6.05151-10.59833,10.84082-2.90002,4.77063-4.8606,10.66394-5.39746,16.99518,12.56116-2.22461,21.6582-4.0882,27.82947-7.75275,3.08801-1.81342,5.45056-4.07526,7.0752-6.91534,1.60895-2.84985,2.48956-6.28876,2.34357-10.38947-2.51343-3.19885-5.76868-5.10248-9.47144-5.57422ZM53.36536,69.80981c-4.21918-3.17224-9.56378-5.84644-15.65399-7.30457-.03534,6.24811.11188,11.69.76068,16.46075.64069,4.75482,1.73962,8.77258,3.32849,11.98865,3.1911,6.46088,8.22784,9.534,16.36041,10.20166,7.08453-4.13184,8.44019-12.77002,4.54071-20.52222-1.92426-3.8974-5.09979-7.64038-9.3363-10.82428ZM24.19287,90.82819c3.31805-4.53009,2.6308-10.60828-1.41022-16.49377-4.02246-5.87305-11.40271-11.46667-20.86151-14.76965,1.4176,9.91101,4.18768,18.04749,7.99847,23.60266,3.80286,5.53827,8.70251,8.53516,14.27325,7.66077ZM21.37189,121.93579c-7.07068,1.78802-14.9657,7.40131-20.09406,15.88757,9.86029.81732,17.86304.8031,23.98676-.7771,6.08392-1.56744,10.44208-4.74243,11.95715-10.17737-2.66614-4.90588-8.73199-6.76526-15.84985-4.93311ZM46.70605,40.35437c4.08356-3.60425,5.10492-7.68445,3.80792-11.93219-1.30377-4.29114-4.995-8.89801-10.66779-14.60901-4.73218,6.53528-5.87408,13.9635-4.25549,19.16687,1.60876,5.26324,5.77222,8.17383,11.11536,7.37433ZM123.2915,80.72314c10.75568-1.5343,12.62231-13.80432,4.21625-27.71454-12.16241,10.78125-14.02899,23.05121-4.21625,27.71454Z"/>
</svg>